<svg width="67" height="40" viewBox="0 0 67 40" fill="none" xmlns="http://www.w3.org/2000/svg">
<path fill-rule="evenodd" clip-rule="evenodd" d="M61.2139 5.71484C63.5024 7.04785 65.6001 8.00049 66.5535 8.38135C66.7441 8.38135 66.9348 8.57178 66.9348 8.76221C66.9348 8.95264 66.7441 9.14307 66.5535 9.14307C64.4558 9.90527 62.5488 11.0479 61.4045 12.7622C60.0698 14.7622 59.2595 17.0952 58.449 19.4287C57.6384 21.7622 56.8279 24.0957 55.4929 26.0957C50.7256 34.4766 41.7627 40.0005 31.4651 40.0005C23.3545 40.0005 16.5002 36.415 9.60962 32.8105C6.45532 31.1606 3.29346 29.5068 0 28.1909C7.05591 26.667 15.8279 23.6196 22.1208 18.667C24.4094 22.8574 28.0325 26.0957 32.6094 26.8574H33.9441C38.7117 26.8574 42.7163 22.8574 42.7163 18.0957C42.7163 14.667 41 11.8101 38.1396 10.2861C36.9954 9.71484 34.8977 8.76221 32.6094 7.81006C35.2791 4.95264 37.9487 2.66699 41.7627 1.3335C43.6697 0.762207 45.5767 0.381348 47.4836 0.381348C48.0916 0.381348 48.6992 0.381348 49.3071 0.430664C49.6528 0.458984 49.9985 0.50293 50.3442 0.571777C53.8999 1.01562 56.5349 2.72461 59.054 4.35791C59.7771 4.82715 60.4907 5.29004 61.2139 5.71484ZM52.4419 7.61963C52.4419 8.76221 53.2046 9.52441 54.3489 9.52441C55.3022 9.52441 56.2559 8.57178 56.2559 7.61963C56.2559 6.47656 55.4929 5.71484 54.3489 5.71484C53.2046 5.71484 52.4419 6.47656 52.4419 7.61963ZM34.3257 24.7617H33.3721C25.7441 23.6187 20.9768 12.7617 20.9768 5.33301L21.5234 5.54883L22.4158 5.89795C26.1245 7.34814 34.783 10.7329 37.3767 12.1899C39.4744 13.333 41 15.4282 41 18.0947C41 21.7139 38.1396 24.7617 34.3257 24.7617Z" fill="#000000"/>
</svg>
