<svg width="160" height="48" viewBox="0 0 160 48" fill="none" xmlns="http://www.w3.org/2000/svg">
<path d="M25.7874 25.4214H25.7681L10.875 18.1582V26.4366V33.088L25.7778 41.36L40.6806 33.088V18.1582L25.7874 25.4214Z" fill="#F3F3F1"/>
<path d="M10.875 18.1577L25.7681 10.8945L40.6806 18.1577L25.7681 25.4208L10.875 18.1577Z" fill="#E5FAB8"/>
<path d="M29.3927 25.4214H29.412L40.6801 19.9256V18.1582L27.5898 24.5417L29.3927 25.4214Z" fill="#D5DBE1"/>
<path d="M14.5 33.088V26.4366V19.9256L10.875 18.1582V26.4366V33.088L25.7778 41.36L27.5903 40.3544L14.5 33.088Z" fill="#D5DBE1"/>
<path d="M16.5139 18.1577L28.5892 12.2681L25.7681 10.8945L10.875 18.1577L25.7681 25.4208L28.5892 24.0473L16.5139 18.1577Z" fill="#E8E3B7"/>
<path d="M48.736 26.2288C47.4036 26.2288 46.3193 25.1426 46.3193 23.8078C46.3193 22.473 47.4036 21.3867 48.736 21.3867C50.0684 21.3867 51.1527 22.473 51.1527 23.8078C51.1527 25.1426 50.0684 26.2288 48.736 26.2288ZM48.736 23.0008C48.2929 23.0008 47.9304 23.3623 47.9304 23.8078C47.9304 24.2532 48.2929 24.6148 48.736 24.6148C49.1791 24.6148 49.5416 24.2532 49.5416 23.8078C49.5416 23.3623 49.1791 23.0008 48.736 23.0008Z" fill="#A4AFC1"/>
<path d="M10.2705 0H11.8816V3.22807H10.2705V0Z" fill="#A4AFC1"/>
<path d="M10.2705 9.28125H11.8816V12.5093H10.2705V9.28125Z" fill="#A4AFC1"/>
<path d="M4.63184 5.24414H7.85406V6.85818H4.63184V5.24414Z" fill="#A4AFC1"/>
<path d="M13.8955 5.24414H17.1177V6.85818H13.8955V5.24414Z" fill="#A4AFC1"/>
<path d="M36.2497 47.2107H33.833V44.1295C33.833 38.3658 38.4392 33.6738 44.1038 33.6738H47.1247V36.0949H44.1038C39.7732 36.0949 36.2497 39.699 36.2497 44.1295V47.2107Z" fill="black"/>
<path d="M42.6335 40.4206L41.0449 38.5951L45.2886 34.8845L41.0449 31.1754L42.6335 29.3516L47.9195 33.9725C48.1822 34.2017 48.3336 34.5342 48.3336 34.8845C48.3336 35.2347 48.1822 35.5672 47.9195 35.7964L42.6335 40.4206Z" fill="black"/>
<path d="M26.3157 26.5099L25.2588 24.3326L40.1519 17.0694C40.5241 16.887 40.9687 16.9096 41.3216 17.1324C41.6744 17.3535 41.8887 17.7425 41.8887 18.1589V26.2291H39.472V20.0941L26.3157 26.5099Z" fill="black"/>
<path d="M25.7878 41.9652C25.5993 41.9652 25.4108 41.9217 25.2352 41.8313L10.3227 34.1646C9.91994 33.958 9.66699 33.5416 9.66699 33.088V18.1582C9.66699 17.7418 9.88127 17.3528 10.2357 17.1317C10.5902 16.909 11.0332 16.888 11.4054 17.0687L26.2985 24.3319C26.7142 24.5337 26.9784 24.9565 26.9784 25.4181L26.9977 40.7515C26.9977 41.1744 26.7786 41.565 26.4209 41.7861C26.2244 41.9055 26.0069 41.9652 25.7878 41.9652ZM12.0837 32.3488L24.5762 38.7711L24.5617 26.1784L12.0837 20.0934V32.3488Z" fill="black"/>
<path d="M40.1522 19.2463L25.7682 12.2414L11.4036 19.2463L10.3467 17.069L25.2398 9.80586C25.5733 9.64284 25.9632 9.64284 26.2967 9.80586L41.2091 17.069L40.1522 19.2463Z" fill="black"/>
<path d="M19.3337 27.8274H16.917V21.694C16.917 21.2373 17.1732 20.8192 17.5808 20.6126L32.2258 13.2188L33.3149 15.3816L19.3337 22.4397V27.8274Z" fill="black"/>
<path d="M25.2266 39.6992L30.5192 36.9375L31.6356 39.0847L26.3429 41.8465L25.2266 39.6992Z" fill="black"/>
<path d="M81.442 16.046C81.442 16.3247 81.3833 16.5887 81.266 16.838C81.1633 17.0727 81.0167 17.278 80.826 17.454C80.6353 17.63 80.4153 17.7693 80.166 17.872C79.9167 17.9747 79.6527 18.026 79.374 18.026C78.7873 18.026 78.296 17.8353 77.9 17.454C77.504 17.058 77.306 16.5887 77.306 16.046C77.306 15.782 77.3573 15.5327 77.46 15.298C77.5627 15.0487 77.7093 14.836 77.9 14.66C78.0907 14.484 78.3107 14.3447 78.56 14.242C78.8093 14.1247 79.0807 14.066 79.374 14.066C79.6527 14.066 79.9167 14.1173 80.166 14.22C80.4153 14.3227 80.6353 14.462 80.826 14.638C81.0167 14.814 81.1633 15.0267 81.266 15.276C81.3833 15.5107 81.442 15.7673 81.442 16.046ZM77.548 30.5V19.544H81.178V30.5H77.548ZM76.206 16.53C76.074 16.486 75.92 16.4493 75.744 16.42C75.568 16.3907 75.392 16.376 75.216 16.376C74.8787 16.376 74.6073 16.4347 74.402 16.552C74.1967 16.6693 74.0353 16.8307 73.918 17.036C73.8007 17.2267 73.72 17.4467 73.676 17.696C73.632 17.9453 73.61 18.1947 73.61 18.444V19.544H76.052V22.25H73.61V30.5H70.002V22.25H68V19.544H70.002V18.488C70.002 17.8133 70.0753 17.1753 70.222 16.574C70.3687 15.958 70.618 15.4227 70.97 14.968C71.3367 14.4987 71.8207 14.132 72.422 13.868C73.038 13.5893 73.8007 13.45 74.71 13.45C75.018 13.45 75.3187 13.472 75.612 13.516C75.92 13.5453 76.1987 13.5967 76.448 13.67L76.206 16.53ZM90.5729 30.5V24.516C90.5729 24.208 90.5435 23.9147 90.4849 23.636C90.4409 23.3573 90.3602 23.1153 90.2429 22.91C90.1255 22.69 89.9569 22.5213 89.7369 22.404C89.5315 22.272 89.2675 22.206 88.9449 22.206C88.6222 22.206 88.3362 22.272 88.0869 22.404C87.8522 22.5213 87.6542 22.69 87.4929 22.91C87.3315 23.13 87.2069 23.3867 87.1189 23.68C87.0455 23.9587 87.0089 24.252 87.0089 24.56V30.5H83.3789V19.544H86.8769V21.062H86.9209C87.0529 20.8273 87.2215 20.6 87.4269 20.38C87.6469 20.1453 87.8962 19.9473 88.1749 19.786C88.4682 19.6247 88.7835 19.4927 89.1209 19.39C89.4582 19.2873 89.8175 19.236 90.1989 19.236C90.9322 19.236 91.5555 19.368 92.0689 19.632C92.5822 19.896 92.9929 20.2407 93.3009 20.666C93.6235 21.0767 93.8509 21.5533 93.9829 22.096C94.1295 22.6387 94.2029 23.1813 94.2029 23.724V30.5H90.5729ZM103.822 23.768C103.822 23.196 103.638 22.7047 103.272 22.294C102.92 21.8833 102.384 21.678 101.666 21.678C101.314 21.678 100.991 21.7367 100.698 21.854C100.404 21.9567 100.148 22.1033 99.9275 22.294C99.7075 22.4847 99.5315 22.712 99.3995 22.976C99.2675 23.2253 99.1942 23.4893 99.1795 23.768H103.822ZM107.144 25.154C107.144 25.3007 107.144 25.4473 107.144 25.594C107.144 25.7407 107.136 25.88 107.122 26.012H99.1795C99.2088 26.32 99.2968 26.5987 99.4435 26.848C99.6048 27.0973 99.8028 27.3173 100.038 27.508C100.287 27.684 100.558 27.8233 100.852 27.926C101.16 28.0287 101.475 28.08 101.798 28.08C102.37 28.08 102.854 27.9773 103.25 27.772C103.646 27.552 103.968 27.2733 104.218 26.936L106.726 28.52C106.212 29.268 105.53 29.8473 104.68 30.258C103.844 30.654 102.868 30.852 101.754 30.852C100.932 30.852 100.155 30.7273 99.4215 30.478C98.6882 30.214 98.0428 29.84 97.4855 29.356C96.9428 28.8573 96.5102 28.2487 96.1875 27.53C95.8795 26.8113 95.7255 25.99 95.7255 25.066C95.7255 24.1713 95.8795 23.3647 96.1875 22.646C96.4955 21.9127 96.9135 21.2967 97.4415 20.798C97.9695 20.2847 98.5928 19.8887 99.3115 19.61C100.03 19.3313 100.808 19.192 101.644 19.192C102.45 19.192 103.191 19.3313 103.866 19.61C104.54 19.874 105.12 20.2627 105.604 20.776C106.088 21.2893 106.462 21.9127 106.726 22.646C107.004 23.3793 107.144 24.2153 107.144 25.154ZM116.267 23.086C116.062 22.822 115.783 22.6093 115.431 22.448C115.079 22.2867 114.72 22.206 114.353 22.206C113.972 22.206 113.627 22.2867 113.319 22.448C113.011 22.5947 112.747 22.8 112.527 23.064C112.307 23.3133 112.131 23.6067 111.999 23.944C111.882 24.2813 111.823 24.6407 111.823 25.022C111.823 25.4033 111.882 25.7627 111.999 26.1C112.116 26.4373 112.285 26.738 112.505 27.002C112.74 27.2513 113.011 27.4493 113.319 27.596C113.642 27.7427 114.001 27.816 114.397 27.816C114.764 27.816 115.123 27.75 115.475 27.618C115.842 27.4713 116.135 27.266 116.355 27.002L118.357 29.444C117.902 29.884 117.316 30.2287 116.597 30.478C115.878 30.7273 115.116 30.852 114.309 30.852C113.444 30.852 112.637 30.72 111.889 30.456C111.141 30.192 110.488 29.8107 109.931 29.312C109.388 28.7987 108.956 28.1827 108.633 27.464C108.325 26.7453 108.171 25.9313 108.171 25.022C108.171 24.1273 108.325 23.3207 108.633 22.602C108.956 21.8833 109.388 21.2747 109.931 20.776C110.488 20.2627 111.141 19.874 111.889 19.61C112.637 19.3313 113.436 19.192 114.287 19.192C114.683 19.192 115.072 19.2287 115.453 19.302C115.849 19.3753 116.223 19.478 116.575 19.61C116.942 19.7273 117.272 19.8813 117.565 20.072C117.873 20.248 118.137 20.446 118.357 20.666L116.267 23.086ZM125.593 25.726H125.131C124.735 25.726 124.332 25.748 123.921 25.792C123.525 25.8213 123.166 25.8873 122.843 25.99C122.535 26.0927 122.279 26.2467 122.073 26.452C121.868 26.6427 121.765 26.8993 121.765 27.222C121.765 27.4273 121.809 27.6033 121.897 27.75C122 27.8967 122.125 28.014 122.271 28.102C122.418 28.19 122.587 28.256 122.777 28.3C122.968 28.3293 123.151 28.344 123.327 28.344C124.061 28.344 124.618 28.146 124.999 27.75C125.395 27.3393 125.593 26.7893 125.593 26.1V25.726ZM118.971 21.04C119.617 20.424 120.365 19.962 121.215 19.654C122.081 19.346 122.961 19.192 123.855 19.192C124.779 19.192 125.557 19.3093 126.187 19.544C126.833 19.764 127.353 20.116 127.749 20.6C128.145 21.0693 128.431 21.6707 128.607 22.404C128.798 23.1227 128.893 23.9807 128.893 24.978V30.5H125.593V29.334H125.527C125.249 29.7887 124.823 30.1407 124.251 30.39C123.694 30.6393 123.085 30.764 122.425 30.764C121.985 30.764 121.531 30.7053 121.061 30.588C120.592 30.4707 120.159 30.28 119.763 30.016C119.382 29.752 119.067 29.4 118.817 28.96C118.568 28.52 118.443 27.9773 118.443 27.332C118.443 26.54 118.656 25.902 119.081 25.418C119.521 24.934 120.079 24.56 120.753 24.296C121.443 24.032 122.205 23.856 123.041 23.768C123.877 23.68 124.691 23.636 125.483 23.636V23.46C125.483 22.9173 125.293 22.5213 124.911 22.272C124.53 22.008 124.061 21.876 123.503 21.876C122.99 21.876 122.491 21.986 122.007 22.206C121.538 22.426 121.135 22.69 120.797 22.998L118.971 21.04ZM138.032 22.492C137.871 22.448 137.71 22.4187 137.548 22.404C137.402 22.3893 137.255 22.382 137.108 22.382C136.624 22.382 136.214 22.47 135.876 22.646C135.554 22.822 135.29 23.0347 135.084 23.284C134.894 23.5333 134.754 23.8047 134.666 24.098C134.578 24.3913 134.534 24.648 134.534 24.868V30.5H130.926V19.544H134.402V21.128H134.446C134.725 20.5707 135.121 20.116 135.634 19.764C136.148 19.412 136.742 19.236 137.416 19.236C137.563 19.236 137.702 19.2433 137.834 19.258C137.981 19.2727 138.098 19.2947 138.186 19.324L138.032 22.492ZM142.647 22.25V26.43C142.647 26.9433 142.743 27.332 142.933 27.596C143.139 27.8453 143.498 27.97 144.011 27.97C144.187 27.97 144.371 27.9553 144.561 27.926C144.767 27.8967 144.935 27.8527 145.067 27.794L145.111 30.434C144.862 30.522 144.547 30.5953 144.165 30.654C143.784 30.7273 143.403 30.764 143.021 30.764C142.288 30.764 141.672 30.676 141.173 30.5C140.675 30.3093 140.271 30.0453 139.963 29.708C139.67 29.356 139.457 28.9453 139.325 28.476C139.193 27.992 139.127 27.4567 139.127 26.87V22.25H137.367V19.544H139.105V16.662H142.647V19.544H145.221V22.25H142.647Z" fill="#373737"/>
</svg>
